<svg viewBox="0 0 600 600" font-family="sans-serif" xmlns="http://www.w3.org/2000/svg">
  <g class="axes">
    <path fill="none" stroke="gray" stroke-dasharray="1,4" d="M300 270V78.333M321.213 278.787l135.53-135.53M330 300h191.667M321.213 321.213l135.53 135.53M300 330v191.667M278.787 321.213l-135.53 135.53M270 300H78.333M278.787 278.787l-135.53-135.53"/>
  </g>
  <g class="rings">
    <g fill="#f7fbff">
      <path d="M288.797 272.17a30 30 0 0122.406 0 30 30 0 00-22.406 0zM311.757 272.4a30 30 0 0115.843 15.843 30 30 0 00-15.843-15.843zM327.83 288.797a30 30 0 010 22.406 30 30 0 000-22.406zM333.503 314.202a36.389 36.389 0 01-19.3 19.301l-2.446-5.903a30 30 0 0015.843-15.843zM311.203 327.83a30 30 0 01-22.406 0 30 30 0 0022.406 0zM283.353 339.406a42.778 42.778 0 01-22.759-22.759l11.806-4.89a30 30 0 0015.843 15.843zM266.267 313.648a36.389 36.389 0 010-27.296l5.903 2.445a30 30 0 000 22.406zM272.4 288.243a30 30 0 0115.843-15.843 30 30 0 00-15.843 15.843z"/>
    </g>
    <g fill="#deebf7">
      <path d="M288.797 272.17a30 30 0 0122.406 0 30 30 0 00-22.406 0zM314.202 266.497a36.389 36.389 0 0119.301 19.3l-5.903 2.446a30 30 0 00-15.843-15.843zM345.538 281.462a49.167 49.167 0 010 37.076l-17.708-7.335a30 30 0 000-22.406zM339.406 316.647a42.778 42.778 0 01-22.759 22.759l-2.445-5.903a36.389 36.389 0 0019.301-19.3zM313.648 333.733a36.389 36.389 0 01-27.296 0l2.445-5.903a30 30 0 0022.406 0zM278.463 351.211a55.556 55.556 0 01-29.674-29.674l11.805-4.89a42.778 42.778 0 0022.759 22.759zM254.462 318.538a49.167 49.167 0 010-37.076l11.805 4.89a36.389 36.389 0 000 27.296zM272.4 288.243a30 30 0 0115.843-15.843 30 30 0 00-15.843 15.843z"/>
    </g>
    <g fill="#c6dbef">
      <path d="M276.572 242.657a61.944 61.944 0 0146.856 0l-12.225 29.513a30 30 0 00-22.406 0zM326.427 236.984a68.333 68.333 0 0136.59 36.59l-29.514 12.224a36.389 36.389 0 00-19.3-19.301zM363.246 274.127a68.333 68.333 0 010 51.746l-17.708-7.335a49.167 49.167 0 000-37.076zM357.114 323.982a61.944 61.944 0 01-33.132 33.132l-7.335-17.708a42.778 42.778 0 0022.759-22.759zM330.763 375.051a81.111 81.111 0 01-61.526 0l17.115-41.318a36.389 36.389 0 0027.296 0zM256.459 404.335a113.056 113.056 0 01-60.794-60.794l53.124-22.004a55.556 55.556 0 0029.674 29.674zM195.436 342.987a113.056 113.056 0 010-85.974l59.026 24.45a49.167 49.167 0 000 37.075zM266.497 285.798a36.389 36.389 0 0119.3-19.301l2.446 5.903a30 30 0 00-15.843 15.843z"/>
    </g>
    <g fill="#9ecae1">
      <path d="M242.343 160.02a151.389 151.389 0 01115.314 0l-34.23 82.637a61.944 61.944 0 00-46.855 0zM333.762 219.276a87.5 87.5 0 0146.962 46.962l-17.708 7.335a68.333 68.333 0 00-36.59-36.59zM392.759 261.903a100.278 100.278 0 010 76.194l-29.513-12.224a68.333 68.333 0 000-51.746zM363.016 326.427a68.333 68.333 0 01-36.59 36.59l-2.444-5.903a61.944 61.944 0 0033.132-33.132zM345.432 410.467a119.444 119.444 0 01-90.864 0l14.67-35.416a81.111 81.111 0 0061.525 0zM234.454 457.458a170.556 170.556 0 01-91.912-91.912l53.123-22.005a113.056 113.056 0 0060.794 60.794zM112.8 377.216a202.5 202.5 0 010-154.432l82.636 34.229a113.056 113.056 0 000 85.974zM213.373 263.793a93.889 93.889 0 0150.42-50.42l22.005 53.124a36.389 36.389 0 00-19.301 19.3z"/>
    </g>
    <g fill="#6baed6">
      <path d="M237.453 148.215a164.167 164.167 0 01125.094 0l-4.89 11.805a151.389 151.389 0 00-115.314 0zM336.207 213.373a93.889 93.889 0 0150.42 50.42l-5.903 2.445a87.5 87.5 0 00-46.962-46.962zM398.662 259.458a106.667 106.667 0 010 81.084l-5.903-2.445a100.278 100.278 0 000-76.194zM368.919 328.872a74.722 74.722 0 01-40.047 40.047l-2.445-5.903a68.333 68.333 0 0036.59-36.59zM350.322 422.272a132.222 132.222 0 01-100.644 0l4.89-11.805a119.444 119.444 0 0090.864 0zM217.34 498.776A215.278 215.278 0 01101.224 382.66l41.318-17.114a170.556 170.556 0 0091.912 91.912zM100.995 382.106a215.278 215.278 0 010-164.212l11.805 4.89a202.5 202.5 0 000 154.432zM189.763 254.014a119.444 119.444 0 0164.25-64.251l9.78 23.61a93.889 93.889 0 00-50.42 50.42z"/>
    </g>
    <g fill="#4292c6">
      <path d="M237.453 148.215a164.167 164.167 0 01125.094 0 164.167 164.167 0 00-125.094 0zM336.207 213.373a93.889 93.889 0 0150.42 50.42 93.889 93.889 0 00-50.42-50.42zM398.662 259.458a106.667 106.667 0 010 81.084 106.667 106.667 0 000-81.084zM398.432 341.097a106.667 106.667 0 01-57.335 57.335l-12.225-29.513a74.722 74.722 0 0040.047-40.047zM355.212 434.077a145 145 0 01-110.424 0l4.89-11.805a132.222 132.222 0 00100.644 0zM217.34 498.776A215.278 215.278 0 01101.224 382.66 215.278 215.278 0 00217.34 498.776zM95.092 384.55a221.667 221.667 0 010-169.1l5.903 2.444a215.278 215.278 0 000 164.212zM189.763 254.014a119.444 119.444 0 0164.25-64.251 119.444 119.444 0 00-64.25 64.25z"/>
    </g>
    <g fill="#2171b5">
      <path d="M237.453 148.215a164.167 164.167 0 01125.094 0 164.167 164.167 0 00-125.094 0zM336.207 213.373a93.889 93.889 0 0150.42 50.42 93.889 93.889 0 00-50.42-50.42zM398.662 259.458a106.667 106.667 0 010 81.084 106.667 106.667 0 000-81.084zM404.335 343.541a113.056 113.056 0 01-60.794 60.794l-2.444-5.903a106.667 106.667 0 0057.335-57.335zM364.992 457.687a170.556 170.556 0 01-129.984 0l9.78-23.61a145 145 0 00110.424 0zM210.005 516.483A234.444 234.444 0 0183.517 389.995l17.707-7.335A215.278 215.278 0 00217.34 498.776zM89.19 386.996a228.056 228.056 0 010-173.992l5.902 2.445a221.667 221.667 0 000 169.102zM189.763 254.014a119.444 119.444 0 0164.25-64.251 119.444 119.444 0 00-64.25 64.25z"/>
    </g>
    <g fill="#08519c">
      <path d="M237.453 148.215a164.167 164.167 0 01125.094 0 164.167 164.167 0 00-125.094 0zM336.207 213.373a93.889 93.889 0 0150.42 50.42 93.889 93.889 0 00-50.42-50.42zM398.662 259.458a106.667 106.667 0 010 81.084 106.667 106.667 0 000-81.084zM410.237 345.986a119.444 119.444 0 01-64.25 64.251l-2.446-5.902a113.056 113.056 0 0060.794-60.794zM374.771 481.298a196.111 196.111 0 01-149.542 0l9.78-23.61a170.556 170.556 0 00129.983 0zM205.115 528.289A247.222 247.222 0 0171.711 394.885l11.806-4.89a234.444 234.444 0 00126.488 126.488zM83.287 389.44a234.444 234.444 0 010-178.88l5.903 2.444a228.056 228.056 0 000 173.992zM189.763 254.014a119.444 119.444 0 0164.25-64.251 119.444 119.444 0 00-64.25 64.25z"/>
    </g>
    <g fill="#08306b">
      <path d="M237.453 148.215a164.167 164.167 0 01125.094 0 164.167 164.167 0 00-125.094 0zM336.207 213.373a93.889 93.889 0 0150.42 50.42 93.889 93.889 0 00-50.42-50.42zM398.662 259.458a106.667 106.667 0 010 81.084 106.667 106.667 0 000-81.084zM410.237 345.986a119.444 119.444 0 01-64.25 64.251 119.444 119.444 0 0064.25-64.25zM377.216 487.2a202.5 202.5 0 01-154.432 0l2.445-5.902a196.111 196.111 0 00149.542 0zM200.225 540.094a260 260 0 01-140.319-140.32l11.805-4.89A247.222 247.222 0 00205.115 528.29zM71.482 394.33a247.222 247.222 0 010-188.66l11.805 4.89a234.444 234.444 0 000 178.88zM189.763 254.014a119.444 119.444 0 0164.25-64.251 119.444 119.444 0 00-64.25 64.25z"/>
    </g>
  </g>
</svg>
